:SAMPLES-PER-SECOND 30
:FULLY-SPECIFIED
:DEGREES
439
root  68.8074 38.0301 3.03067 177.135 -0.80424 175.745
RightUpLeg  -19.0404 25.9491 -22.7313
RightLeg  24.0979 6.54943 2.98877
RightFoot  -7.24958 -0.318656 7.50647
RightToes  -1.74624e-010 0 -3.6325e-017
Spine  7.33167 0.831373 -0.510017
Spine1  1.22293 2.43086 -8.97787
HEad  -35.1078 41.4034 -33.5964
LeftShoulder1  -0.901102 5.63905 -35.9395
LeftArm  14.8137 0.294548 -39.9002
LeftForeArm  18.9433 -29.2866 -5.31855
LeftHand  0.00744208 6.95952 3.04936
RightShoulder  -0.694756 -5.54689 27.3533
RightArm  18.8716 -8.54197 44.7952
RightForeArm  12.0028 14.8499 6.02411
RightHand  -0.0934589 4.20523 -1.4111
LeftUpLeg  -3.31785 -19.3046 -9.75047
LeftLeg  24.4983 -6.59444 -2.92584
LeftFoot  -13.2442 0.294357 12.8548
LeftToes  2.27646e-009 -8.13696e-011 -1.44715e-011
440
root  69.543 38.0033 2.43069 178.039 -6.78877 175.882
RightUpLeg  -17.9111 28.0911 -23.4462
RightLeg  20.0401 7.88618 2.97532
RightFoot  -7.84278 -0.275579 7.29515
RightToes  -1.74624e-010 0 -3.6325e-017
Spine  6.74533 0.841532 0.917156
Spine1  2.05132 2.70965 -9.48156
HEad  -27.3233 39.2206 -27.976
LeftShoulder1  -0.57439 4.89547 -35.0136
LeftArm  13.84 0.21669 -40.8194
LeftForeArm  18.3454 -26.4706 -4.69715
LeftHand  -0.00586914 6.01873 3.88704
RightShoulder  -0.871551 -5.99198 28.4037
RightArm  19.8133 -9.94591 43.7462
RightForeArm  10.4866 16.086 5.67642
RightHand  -0.148354 3.94896 -2.11885
LeftUpLeg  -3.44056 -22.8797 -8.39962
LeftLeg  25.1412 -9.16061 -4.32023
LeftFoot  -14.242 0.395711 12.2039
LeftToes  2.27646e-009 -8.13696e-011 -1.44715e-011
441
root  70.2794 37.9039 1.85173 179.12 -12.4453 175.414
RightUpLeg  -16.8586 27.3414 -23.4773
RightLeg  18.0069 9.29125 3.16599
RightFoot  -7.85177 -0.319156 8.5166
RightToes  -1.74624e-010 0 -3.6325e-017
Spine  7.23352 0.57257 0.539493
Spine1  1.26185 2.14698 -8.21102
HEad  -24.1101 35.8578 -26.7057
LeftShoulder1  -0.821697 5.47147 -35.538
LeftArm  14.2084 0.319408 -39.7295
LeftForeArm  16.9009 -24.7621 -4.4304
LeftHand  0.0217949 7.03192 3.95605
RightShoulder  -0.716478 -5.58286 27.7294
RightArm  20.597 -11.0736 43.95
RightForeArm  9.95586 16.0641 5.8023
RightHand  -0.101463 4.62942 -1.46252
LeftUpLeg  -4.1896 -26.5316 -7.45345
LeftLeg  26.1598 -11.0299 -5.50439
LeftFoot  -15.2266 0.481561 11.4338
LeftToes  2.27646e-009 -8.13696e-011 -1.44715e-011
442
root  71.1007 37.7833 1.21487 -179.97 -17.6376 174.875
RightUpLeg  -15.2249 23.4295 -21.9124
RightLeg  18.0358 9.62365 3.27105
RightFoot  -7.71088 -0.404863 11.0796
RightToes  -1.74624e-010 0 -3.6325e-017
Spine  7.25037 0.450445 1.08852
Spine1  1.60487 2.28846 -9.28618
HEad  -21.1453 32.5177 -24.0788
LeftShoulder1  -0.736667 5.40036 -32.6917
LeftArm  12.1204 0.660709 -40.9055
LeftForeArm  17.8324 -22.0906 -4.25153
LeftHand  0.025093 7.5752 3.22931
RightShoulder  -0.906393 -6.00132 29.7363
RightArm  22.9741 -10.4865 42.9183
RightForeArm  9.56143 16.0193 6.13002
RightHand  -0.124438 4.58208 -1.73692
LeftUpLeg  -4.87519 -29.9069 -6.33134
LeftLeg  27.1922 -12.2432 -6.41322
LeftFoot  -16.1068 0.561021 11.116
LeftToes  2.27646e-009 -8.13696e-011 -1.44715e-011
443
root  71.9157 37.7144 0.574245 -179.526 -22.073 174.522
RightUpLeg  -13.6637 19.4691 -19.8847
RightLeg  20.1799 7.33151 2.77632
RightFoot  -10.8998 -0.114878 10.866
RightToes  -1.74624e-010 0 -3.6325e-017
Spine  8.18303 0.788918 1.47147
Spine1  1.26305 2.53154 -8.56575
HEad  -18.1447 29.6505 -22.6152
LeftShoulder1  -0.786511 5.52108 -32.8255
LeftArm  10.1913 0.209054 -39.2418
LeftForeArm  18.2884 -19.9324 -5.09791
LeftHand  0.0495756 8.11368 3.76276
RightShoulder  -0.875071 -5.92321 29.5751
RightArm  23.9247 -10.7131 43.1539
RightForeArm  10.4182 15.8126 6.33282
RightHand  -0.138982 4.57355 -1.90518
LeftUpLeg  -5.11658 -31.2747 -4.78183
LeftLeg  27.725 -14.042 -7.55769
LeftFoot  -16.7484 0.595711 10.4402
LeftToes  2.27646e-009 -8.13696e-011 -1.44715e-011
